<svg version="1.0" xmlns="http://www.w3.org/2000/svg"
 width="200.000000pt" height="200.000000pt" viewBox="0 0 200.000000 200.000000"
 preserveAspectRatio="xMidYMid meet">

<g transform="translate(0.000000,200.000000) scale(0.100000,-0.100000)"
fill="#000000" stroke="none">
<path d="M154 1891 c-67 -41 -64 -4 -64 -885 0 -878 -2 -847 62 -886 32 -20
48 -20 848 -20 800 0 816 0 848 20 64 39 62 8 62 886 0 881 3 844 -64 885 -30
18 -66 19 -846 19 -780 0 -816 -1 -846 -19z m1672 -62 c18 -20 19 -50 22 -818
2 -796 2 -798 -19 -824 l-20 -27 -809 0 -809 0 -20 26 c-21 27 -21 33 -21 819
0 786 0 792 21 819 l20 26 808 0 808 0 19 -21z"/>
<path d="M500 1092 c0 -302 1 -310 22 -337 41 -53 58 -55 433 -55 366 0 388 2
428 48 10 11 21 39 24 61 3 23 11 41 18 41 42 0 117 34 153 71 107 106 107
302 1 408 -67 67 -53 66 -591 69 l-488 3 0 -309z m996 180 c61 -44 82 -159 44
-238 -23 -46 -54 -71 -100 -81 l-30 -5 0 169 c0 93 3 173 7 177 10 10 51 -2
79 -22z"/>
<path d="M420 640 c0 -21 30 -69 56 -89 26 -21 36 -21 473 -21 430 0 447 1
479 20 27 17 62 70 62 95 0 3 -241 5 -535 5 -367 0 -535 -3 -535 -10z"/>
</g>
</svg>
